<svg fill="#C5E900" version="1.1" viewBox="0 0 200 60" xmlns="http://www.w3.org/2000/svg">
  <path d="m81.23 37.75v-16.2h22.23l-3.929-3.984c-1.041-1.057-2.455-1.65-3.928-1.65h-20.62v17.39c0 1.494 0.5847 2.928 1.627 3.984l5.08 5.15c1.042 1.056 2.456 1.649 3.929 1.649h17.15v-5.632h-20.84c-0.3844 0-0.6951-0.315-0.6951-0.7042z"></path>
  <path d="m38.17 21.55h15.28c0.3844 0 0.6951 0.3149 0.6951 0.7042v7.745h-15.98zm11.59-5.634h-17.84v28.17h6.25v-11.97l1.845 1.871c1.042 1.056 2.456 1.649 3.93 1.649h16.45v-8.935c0-1.494-0.5848-2.928-1.627-3.984l-5.08-5.15c-1.042-1.056-2.456-1.649-3.929-1.649h-0.0012z"></path>
  <path d="m113.2 37.75v-4.929h15.97c0.3846 0 0.6951 0.3148 0.6951 0.7041v4.929h-15.97c-0.3846 0-0.6951-0.315-0.6951-0.7042zm0-10.56v-5.632h15.97c0.3846 0 0.6951 0.3149 0.6951 0.7042v4.929h-16.67zm22.92 16.9v-9.638c0-1.494-0.5848-2.926-1.627-3.984-0.773-0.7843-1.584-1.606-1.845-1.871h3.472v-2.596c0-1.494-0.5848-2.928-1.627-3.984l-4.385-4.447c-1.042-1.056-2.455-1.649-3.929-1.649h-19.23v17.39c0 1.494 0.5847 2.928 1.627 3.984l5.08 5.15c1.042 1.056 2.456 1.649 3.929 1.649h18.54z"></path>
  <path d="m189.2 21.55v22.53h-6.252v-22.53h-10.77v-5.634h27.78v5.634z"></path>
  <path d="m70.81 15.92h-6.25v28.17h6.25z"></path>
  <path d="m168.7 21.55-3.929-3.984c-1.042-1.058-2.455-1.651-3.93-1.651h-20.62v17.39c0 1.494 0.5848 2.928 1.627 3.984l5.08 5.15c1.042 1.056 2.455 1.649 3.929 1.649h17.15v-5.632h-20.84c-0.385 0-0.6962-0.315-0.6962-0.7042v-4.929h21.53v-5.632h-21.53v-5.632h22.23z"></path>
  <path d="m28.48 21.55-3.93-3.984c-1.041-1.058-2.454-1.651-3.928-1.651h-20.62v17.39c0 1.494 0.5848 2.928 1.627 3.984l5.08 5.15c1.042 1.056 2.456 1.649 3.929 1.649h17.15v-5.632h-20.84c-0.3845 0-0.6951-0.315-0.6951-0.7042v-4.929h21.53v-5.632h-21.53v-5.632h22.23z"></path>
</svg>